<svg aria-hidden="true" style="position: absolute; width: 0; height: 0; overflow: hidden;" version="1.1" xmlns="http://www.w3.org/2000/svg" xmlns:xlink="http://www.w3.org/1999/xlink">
<defs>
<symbol id="logo" viewBox="0 0 32 32">
<path d="M21.25 1.232c0-0.68 0.672-1.232 1.503-1.232s1.503 0.552 1.503 1.232v5.396c0 0.68-0.672 1.232-1.503 1.232s-1.503-0.552-1.503-1.232v-5.396zM16.302 15.964l1.563 3.622 3.924 0.352c0.162 0.013 0.288 0.148 0.288 0.312 0 0.010-0 0.021-0.002 0.031l0-0.001c-0.006 0.085-0.046 0.159-0.106 0.211l-0 0-2.971 2.604 0.878 3.841c0.005 0.022 0.009 0.047 0.009 0.072 0 0.149-0.104 0.273-0.243 0.305l-0.002 0c-0.020 0.004-0.044 0.007-0.068 0.007-0.066 0-0.127-0.019-0.178-0.052l-3.384-2.015-3.385 2.026c-0.046 0.027-0.101 0.044-0.161 0.044-0.115 0-0.215-0.061-0.271-0.152l-0.001-0.001c-0.028-0.046-0.045-0.102-0.045-0.162 0-0.026 0.003-0.051 0.009-0.075l-0 0.002 0.867-3.852-2.969-2.604c-0.061-0.058-0.099-0.14-0.099-0.231 0-0.074 0.026-0.143 0.069-0.197l-0.001 0.001c0.056-0.061 0.135-0.1 0.223-0.104l0.001-0 3.906-0.349 1.563-3.628c0.049-0.114 0.161-0.192 0.29-0.192 0.045 0 0.087 0.009 0.126 0.026l-0.002-0.001c0.077 0.031 0.137 0.090 0.169 0.165l0.001 0.002zM7.711 1.232c0-0.68 0.672-1.232 1.503-1.232s1.503 0.552 1.503 1.232v5.396c0 0.68-0.672 1.232-1.503 1.232s-1.503-0.552-1.503-1.232v-5.396zM1.667 11.802h28.664v-6.211c-0.002-0.21-0.087-0.4-0.224-0.539l0 0c-0.138-0.138-0.328-0.224-0.539-0.224-0 0-0 0-0 0h-2.745c-0.46 0-0.833-0.373-0.833-0.833s0.373-0.833 0.833-0.833v0h2.747c1.34 0.004 2.425 1.090 2.43 2.429v23.98c-0.004 1.34-1.090 2.425-2.429 2.43h-27.141c-1.341-0.004-2.427-1.091-2.43-2.432v-23.977c0.004-1.34 1.090-2.425 2.429-2.43h2.935c0.46 0 0.833 0.373 0.833 0.833s-0.373 0.833-0.833 0.833v0h-2.935c-0.21 0.002-0.4 0.087-0.539 0.224l0-0c-0.138 0.138-0.224 0.328-0.224 0.539 0 0 0 0 0 0v0 6.211zM30.331 13.471h-28.664v16.096c0.002 0.21 0.087 0.4 0.224 0.539l-0-0c0.138 0.138 0.328 0.224 0.539 0.224 0 0 0 0 0 0h27.138c0.21-0.002 0.4-0.087 0.539-0.224l-0 0c0.138-0.138 0.224-0.328 0.224-0.539 0-0 0-0 0-0v0-16.096zM13.143 4.828c-0.46 0-0.833-0.373-0.833-0.833s0.373-0.833 0.833-0.833v0h5.583c0.46 0 0.833 0.373 0.833 0.833s-0.373 0.833-0.833 0.833v0z"></path>
</symbol>
</defs>
</svg>
