<svg aria-hidden="true" style="position: absolute; width: 0; height: 0; overflow: hidden;" version="1.1" xmlns="http://www.w3.org/2000/svg" xmlns:xlink="http://www.w3.org/1999/xlink">
<defs>
<symbol id="logo" viewBox="0 0 32 32">
<path d="M21.25 1.232c0-0.68 0.672-1.232 1.503-1.232s1.503 0.552 1.503 1.232v5.396c0 0.68-0.672 1.232-1.503 1.232s-1.503-0.552-1.503-1.232v-5.396zM16.302 15.964l1.563 3.622 3.924 0.352c0.162 0.013 0.288 0.148 0.288 0.312 0 0.010-0 0.021-0.002 0.031l0-0.001c-0.006 0.085-0.046 0.159-0.106 0.211l-0 0-2.971 2.604 0.878 3.841c0.005 0.022 0.009 0.047 0.009 0.072 0 0.149-0.104 0.273-0.243 0.305l-0.002 0c-0.020 0.004-0.044 0.007-0.068 0.007-0.066 0-0.127-0.019-0.178-0.052l-3.384-2.015-3.385 2.026c-0.046 0.027-0.101 0.044-0.161 0.044-0.115 0-0.215-0.061-0.271-0.152l-0.001-0.001c-0.028-0.046-0.045-0.102-0.045-0.162 0-0.026 0.003-0.051 0.009-0.075l-0 0.002 0.867-3.852-2.969-2.604c-0.061-0.058-0.099-0.14-0.099-0.231 0-0.074 0.026-0.143 0.069-0.197l-0.001 0.001c0.056-0.061 0.135-0.1 0.223-0.104l0.001-0 3.906-0.349 1.563-3.628c0.049-0.114 0.161-0.192 0.29-0.192 0.045 0 0.087 0.009 0.126 0.026l-0.002-0.001c0.077 0.031 0.137 0.090 0.169 0.165l0.001 0.002zM7.711 1.232c0-0.68 0.672-1.232 1.503-1.232s1.503 0.552 1.503 1.232v5.396c0 0.68-0.672 1.232-1.503 1.232s-1.503-0.552-1.503-1.232v-5.396zM1.667 11.802h28.664v-6.211c-0.002-0.21-0.087-0.4-0.224-0.539l0 0c-0.138-0.138-0.328-0.224-0.539-0.224-0 0-0 0-0 0h-2.745c-0.46 0-0.833-0.373-0.833-0.833s0.373-0.833 0.833-0.833v0h2.747c1.34 0.004 2.425 1.090 2.43 2.429v23.98c-0.004 1.34-1.090 2.425-2.429 2.43h-27.141c-1.341-0.004-2.427-1.091-2.43-2.432v-23.977c0.004-1.34 1.090-2.425 2.429-2.43h2.935c0.46 0 0.833 0.373 0.833 0.833s-0.373 0.833-0.833 0.833v0h-2.935c-0.21 0.002-0.4 0.087-0.539 0.224l0-0c-0.138 0.138-0.224 0.328-0.224 0.539 0 0 0 0 0 0v0 6.211zM30.331 13.471h-28.664v16.096c0.002 0.21 0.087 0.4 0.224 0.539l-0-0c0.138 0.138 0.328 0.224 0.539 0.224 0 0 0 0 0 0h27.138c0.21-0.002 0.4-0.087 0.539-0.224l-0 0c0.138-0.138 0.224-0.328 0.224-0.539 0-0 0-0 0-0v0-16.096zM13.143 4.828c-0.46 0-0.833-0.373-0.833-0.833s0.373-0.833 0.833-0.833v0h5.583c0.46 0 0.833 0.373 0.833 0.833s-0.373 0.833-0.833 0.833v0z"></path>
</symbol>
<symbol id="profile" viewBox="0 0 32 32">
<path fill="none" stroke="#4f4f4f" style="stroke: var(--color1, #4f4f4f)" stroke-linejoin="round" stroke-linecap="round" stroke-miterlimit="4" stroke-width="2.4" d="M24.187 28.827c-1.173 0.347-2.56 0.507-4.187 0.507h-8c-1.627 0-3.013-0.16-4.187-0.507 0.293-3.467 3.853-6.2 8.187-6.2s7.893 2.733 8.187 6.2v0z"></path>
<path fill="none" stroke="#4f4f4f" style="stroke: var(--color1, #4f4f4f)" stroke-linejoin="round" stroke-linecap="round" stroke-miterlimit="4" stroke-width="2.4" d="M20 2.666h-8c-6.667 0-9.333 2.667-9.333 9.333v8c0 5.040 1.52 7.8 5.147 8.827 0.293-3.467 3.853-6.2 8.187-6.2s7.893 2.733 8.187 6.2c3.627-1.027 5.147-3.787 5.147-8.827v-8c0-6.667-2.667-9.333-9.333-9.333zM16 18.893c-2.64 0-4.773-2.147-4.773-4.787s2.133-4.773 4.773-4.773c2.64 0 4.773 2.133 4.773 4.773s-2.133 4.787-4.773 4.787z"></path>
<path fill="none" stroke="#4f4f4f" style="stroke: var(--color1, #4f4f4f)" stroke-linejoin="round" stroke-linecap="round" stroke-miterlimit="4" stroke-width="2.4" d="M20.773 14.106c0 2.64-2.133 4.787-4.773 4.787s-4.773-2.147-4.773-4.787c0-2.64 2.133-4.773 4.773-4.773s4.773 2.133 4.773 4.773z"></path>
</symbol>
<symbol id="logout" viewBox="0 0 32 32">
<path fill="none" stroke="#4f4f4f" style="stroke: var(--color1, #4f4f4f)" stroke-linejoin="round" stroke-linecap="round" stroke-miterlimit="4" stroke-width="2.6667" d="M20.594 22.577c-0.459 5.333-3.2 7.511-9.2 7.511h-0.193c-6.622 0-9.274-2.652-9.274-9.274l0-9.659c0-6.622 2.652-9.274 9.274-9.274h0.193c5.956 0 8.696 2.148 9.185 7.393"></path>
<path fill="none" stroke="#4f4f4f" style="stroke: var(--color1, #4f4f4f)" stroke-linejoin="round" stroke-linecap="round" stroke-miterlimit="4" stroke-width="2.6667" d="M11.556 16h16.859"></path>
<path fill="none" stroke="#4f4f4f" style="stroke: var(--color1, #4f4f4f)" stroke-linejoin="round" stroke-linecap="round" stroke-miterlimit="4" stroke-width="2.6667" d="M25.112 20.963l4.963-4.963-4.963-4.963"></path>
</symbol>
<symbol id="ticket" viewBox="0 0 32 32">
<path fill="#4f4f4f" style="fill: var(--color1, #4f4f4f)" d="M22.996 11.25h-13.996c-0.414 0-0.75 0.336-0.75 0.75v0 7.605c0 0.414 0.336 0.75 0.75 0.75h13.996c0.414 0 0.75-0.336 0.75-0.75v0-7.605c0-0.414-0.336-0.75-0.75-0.75v0zM22.246 18.855h-12.496v-6.105h12.496zM30 13.75c0.414 0 0.75-0.336 0.75-0.75v0-5c0-0.414-0.336-0.75-0.75-0.75h-28c-0.414 0-0.75 0.336-0.75 0.75v0 5c0 0.414 0.336 0.75 0.75 0.75v0c1.243 0 2.25 1.007 2.25 2.25s-1.007 2.25-2.25 2.25v0c-0.414 0-0.75 0.336-0.75 0.75v0 5c0 0.414 0.336 0.75 0.75 0.75h28c0.414 0 0.75-0.336 0.75-0.75v0-5c0-0.414-0.336-0.75-0.75-0.75v0c-1.243 0-2.25-1.007-2.25-2.25s1.007-2.25 2.25-2.25v0zM29.25 19.674v3.576h-26.5v-3.576c1.724-0.361 3-1.869 3-3.674s-1.276-3.313-2.975-3.67l-0.024-0.004v-3.576h26.5v3.576c-1.724 0.361-3 1.869-3 3.674s1.276 3.313 2.975 3.67l0.024 0.004z"></path>
</symbol>
</defs>
</svg>
